<svg width="24" height="22" viewBox="0 0 24 22" fill="none" xmlns="http://www.w3.org/2000/svg">
<path d="M20.5908 3.46443C20.08 2.95343 19.4736 2.54807 18.8061 2.27151C18.1387 1.99495 17.4233 1.8526 16.7008 1.8526C15.9783 1.8526 15.2629 1.99495 14.5954 2.27151C13.928 2.54807 13.3215 2.95343 12.8108 3.46443L11.7508 4.52443L10.6908 3.46443C9.6591 2.43273 8.25982 1.85313 6.80079 1.85313C5.34176 1.85313 3.94248 2.43273 2.91079 3.46443C1.8791 4.49612 1.2995 5.89539 1.2995 7.35443C1.2995 8.81346 1.8791 10.2127 2.91079 11.2444L3.97079 12.3044L11.7508 20.0844L19.5308 12.3044L20.5908 11.2444C21.1018 10.7337 21.5071 10.1272 21.7837 9.45978C22.0603 8.79232 22.2026 8.07691 22.2026 7.35443C22.2026 6.63194 22.0603 5.91653 21.7837 5.24907C21.5071 4.58161 21.1018 3.97518 20.5908 3.46443V3.46443Z" fill="#D30000" stroke="black" stroke-width="2" stroke-linecap="round" stroke-linejoin="round"/>
</svg>
